PathFileType	4	(X/Y/Z)	12_2_29_p1_0-339.trc
DataRate	CameraRate	NumFrames	NumMarkers	Units	OrigDataRate	OrigDataStartFrame	OrigNumFrames
59.0	59.0	7	27	m	59.0	85	340
Frame#	Time	RHip			RKnee			RAnkle			RBigToe			RSmallToe			RHeel			LHip			LKnee			LAnkle			LBigToe			LSmallToe			LHeel			Neck			Head			Nose			RShoulder			RElbow			RWrist			RThumb			RIndex			RPinky			LShoulder			LElbow			LWrist			LThumb			LIndex			LPinky			
		X1	Y1	Z1	X2	Y2	Z2	X3	Y3	Z3	X4	Y4	Z4	X5	Y5	Z5	X6	Y6	Z6	X7	Y7	Z7	X8	Y8	Z8	X9	Y9	Z9	X10	Y10	Z10	X11	Y11	Z11	X12	Y12	Z12	X13	Y13	Z13	X14	Y14	Z14	X15	Y15	Z15	X16	Y16	Z16	X17	Y17	Z17	X18	Y18	Z18	X19	Y19	Z19	X20	Y20	Z20	X21	Y21	Z21	X22	Y22	Z22	X23	Y23	Z23	X24	Y24	Z24	X25	Y25	Z25	X26	Y26	Z26	X27	Y27	Z27	
85	1.4406779661016949	0.43806604342442357	0.5067883217411879	1.0605849353378776	0.48005194405350443	0.5563237733973865	1.5168415747676407	0.4856418610629446	0.6286506190819853	1.9384035132650186	0.47203758236993687	0.3785188148521229	1.9172390385545826	0.5285992287604018	0.4167565720506026	1.9188226038134986	0.465594163444397	0.6683220605041713	2.009769514828894	0.2165251189487172	0.5261694038594467	1.0931569655270963	0.2608707650732786	0.5306478103546614	1.5376334247671188	0.3303527432274314	0.5999501604896954	1.9540894170524064	0.33028800770000866	0.3816671713260516	1.9409016964802448	0.26736531583362705	0.43062594864541853	1.9477389935861877	0.34222551297401954	0.6454958015340925	2.010854155043205	0.24803078728336508	0.5568337097641453	0.4277369030328676	0.24244036991818763	0.4997942174024539	0.1761672040945124	0.2529588289741158	0.455878625513725	0.29860783164453925	0.4375417627999089	0.5670321554220744	0.5259662534933075	0.5121236560673991	0.5886192614982702	0.7960738922345911	0.4608881437277261	0.3892276789150027	0.728388709256419	0.3928984527605174	0.28801955749170544	0.6764083006083218	0.40477083273373726	0.2638551231558287	0.6780770311715034	0.39175614286634014	0.32923299379799587	0.7635068759090383	0.0857846279644832	0.5661269006647126	0.5520554369621524	0.0629915282816489	0.5446741420752216	0.8417844770642032	0.1932373311806086	0.2851654404250852	0.7083392112771706	0.23846982656732052	0.21924067922295193	0.6344584848742842	0.2515881463611891	0.1807217297729297	0.637668454910879	0.27045670660086424	0.21397309750603016	0.7087120438350721
86	1.4576271186440677	0.4380568294162472	0.5067860934750754	1.060598151554469	0.4797048201952263	0.5567553004059376	1.5213497048759113	0.4856291488347587	0.6284637705196139	1.9384078269172726	0.46790206567955156	0.36719033348407026	1.9100039140591214	0.5243463789288798	0.4052706032738166	1.9117092947886227	0.4677823454334773	0.6591514050721582	2.0091734794655705	0.21633101409066693	0.5261680023804928	1.0968860863288465	0.26040042892349274	0.5308640587149978	1.5421717675841824	0.3290538464841342	0.598180066446404	1.9488291590724722	0.33029414926482603	0.38109384657518575	1.940508356296042	0.26748195022359866	0.4307877776033204	1.9477490548567067	0.34224019612329953	0.6451374819993322	2.0108025832336476	0.2480304767926681	0.5568111958918387	0.42772719898426625	0.24249950293299355	0.4998199361656644	0.17621632536600232	0.25296125450058005	0.4558330228658159	0.2986891379263168	0.4378269244536494	0.5665287119564981	0.5297399739283551	0.5123093125545867	0.5882780225024716	0.7960604095615718	0.4610515545497865	0.38927476881631895	0.728477615266062	0.38382268302576483	0.3113359194713799	0.6793239396817317	0.4012208532711415	0.275045228542359	0.6814665636313609	0.39175175350637276	0.32944849088962797	0.7666109016413534	0.08108563814496669	0.5692490688139963	0.5499036873734677	0.06528949430353337	0.5549340383223293	0.8443279535014782	0.19190713774949467	0.3078953868899022	0.7146969539004429	0.23714860457921566	0.24437178522651776	0.6428711079749084	0.24770131387943348	0.19072143096018013	0.6412196954173978	0.2694342263483959	0.2478043571156781	0.7176242330423923
87	1.4745762711864407	0.43800670695450206	0.5068038310825274	1.0607174849811327	0.48005293354786877	0.5565046132478122	1.5168199254135	0.4856371729089661	0.6285989791359531	1.938544896165929	0.47196680424197884	0.37849385198433916	1.9172333941734523	0.5293908790129075	0.4144484666949903	1.9224831478216058	0.4639507787035583	0.6546975884874375	2.01198709327739	0.21654323556276275	0.5262412416054277	1.0933677180738162	0.26086236623168196	0.5306267287170287	1.5376749856104552	0.3304053437862966	0.5999402261645601	1.9541886341464985	0.33033712518551556	0.3816744686132797	1.9408206945275368	0.2674738646479706	0.4309859297479132	1.9477989701368934	0.34227089129426935	0.6453537387062944	2.0109683162487695	0.24803654703447678	0.5568501998054692	0.4278222771438933	0.24246438641182105	0.49979255137220135	0.17622590877614375	0.2529342087909631	0.4558565084284848	0.29872333370133536	0.43782150047233725	0.5661536363158046	0.5297287404782468	0.5092152685403099	0.6029526718319119	0.8003358846191141	0.4530997549313554	0.3898231364688041	0.7258285701820286	0.38633373454663406	0.2901229514787552	0.6738963317467086	0.40157198210786366	0.25310580679731365	0.6788770636407643	0.394592418944586	0.28056265766695193	0.7496646134794845	0.08157195235632778	0.5683675692646812	0.5535240874229405	0.06577634691004944	0.5563576293984072	0.8472715258127007	0.2002551088052213	0.2974494384391671	0.7107860264579788	0.25046864739636654	0.23267704054571914	0.6462603452294648	0.25188408103518395	0.18030757079289805	0.6416416318274416	0.27268358172761875	0.25772315543035496	0.7232971536129073
88	1.4915254237288136	0.4380465600577122	0.5066939709901492	1.0605893268349869	0.48004104763681643	0.5563901039971447	1.5167627522773766	0.48505201908572126	0.6291704777109256	1.943802279182355	0.4720028511364144	0.37835301796530635	1.9171344440419906	0.5285861790024746	0.41626241846108697	1.918726474727998	0.4723018344742598	0.6732729857086155	2.0178079575550902	0.21651133218487206	0.5263068677756836	1.0932439510974004	0.25964451508601866	0.5324592988677784	1.538687394239588	0.32989253502687776	0.6003012912637355	1.9597448892050946	0.3305017757468634	0.38147389112615576	1.9407024727451272	0.27168675584865803	0.4171151796143577	1.9374132854755552	0.3422966455118835	0.6456424358965109	2.011299316417921	0.2480226100240435	0.5569819173199894	0.4278107777077973	0.24251472753311198	0.49969422455208623	0.17624158468254242	0.2529205001631366	0.45595023058880035	0.2987986283925934	0.4377643946070214	0.5663624124901189	0.5297446360163274	0.5152026472485514	0.600375824556163	0.7913605927341895	0.45618275112550866	0.3767399209172684	0.7216034670282667	0.3764638644688253	0.29134037849431155	0.6829262596884162	0.3949510109774184	0.25338444081568695	0.6834980359842847	0.3917063962387056	0.29374099689877275	0.760531609205941	0.08041752817138711	0.578392038300725	0.5554613622202267	0.06640340399709552	0.5596216728141412	0.8461289404854987	0.2032155916437218	0.30800220362771497	0.7132136895804926	0.2417939238867584	0.2547228383387246	0.6525964439096843	0.2523221888596471	0.18149156676540384	0.6424139624847562	0.27715447802938215	0.24555999268078257	0.723478604845406
89	1.5084745762711864	0.43804749293399003	0.5066415622679934	1.060700088525168	0.47972473488146367	0.556680127145478	1.5212039938149027	0.4856320232059077	0.6286838573228812	1.938684035527242	0.471985270675618	0.37842071337934985	1.9171830444760782	0.5244305008128561	0.40534614145382786	1.9117508674418926	0.4667354222968764	0.6667762295608681	2.014020821923731	0.21632794896395624	0.5263023408344216	1.0969486272604343	0.25963419350827754	0.5324220837649585	1.5387823675560834	0.3298480861096003	0.6001488372040775	1.9596913205511846	0.3304529152007766	0.38100705913858596	1.9405140785771497	0.2675220825553282	0.43030228850137303	1.9475180714893725	0.34218045097189626	0.6453240878626881	2.0111394447256474	0.2479983920384411	0.5569700993898025	0.4277062269569318	0.24250775028107008	0.49962728394628947	0.17620392773142882	0.2528947152893888	0.4558422490840295	0.29885393527069326	0.43773112850938656	0.5666067758867764	0.5298050235493073	0.5164370638287157	0.6012674086189078	0.7958022135071301	0.45617708861346357	0.37678075582605963	0.721691668474214	0.37655199842044373	0.2920329632410761	0.6791400550596812	0.3908798394264709	0.25341306086647963	0.6807777431063986	0.37711875712397736	0.3287885678794253	0.7726369085675193	0.08039413431830295	0.5786239351066137	0.5553379468996005	0.06644384375760376	0.5590204971570071	0.8458946622449607	0.20243203771606044	0.3225332795540627	0.7172772207659502	0.24029749461145175	0.26676567235112614	0.6563937311318417	0.25233806029779887	0.19411342960361322	0.6458636836405103	0.2847978241860343	0.2694809053385309	0.7323282748464427
90	1.5254237288135593	0.43797904530217646	0.5069789674802093	1.0608240457578622	0.4800551732230781	0.5563458822345057	1.5168543605339937	0.48565033386203893	0.6285655608838594	1.9385846620317577	0.4719454672909523	0.3783692244952374	1.9171810986419915	0.5244425924706975	0.4053006180463279	1.911745301583025	0.47310012374947596	0.6705083142913199	2.020908294873009	0.21634393971603993	0.5264292980595349	1.0969927316670558	0.2609052204574895	0.533792476693074	1.5439987848959982	0.32981428046730193	0.600110266553362	1.9595204646194502	0.33122139997745803	0.37909064542813614	1.9439625591112586	0.2674630500713049	0.43061845814149624	1.947552895008235	0.3422243324641236	0.6453829707901126	2.0109846028622056	0.24377058734258336	0.5703322062500816	0.4300276784892276	0.2424918181446778	0.4997075083312148	0.17620379465295036	0.25292683082415185	0.45589718236716015	0.2988614736323979	0.43781460195081323	0.5667676016225789	0.5298334067369639	0.5157451989291619	0.6032810407491932	0.7923814390804184	0.45687569264021716	0.40046624486441523	0.7313896369178151	0.38476069820666997	0.3114161749477921	0.6872656172254933	0.3952245222925126	0.26281866551994987	0.6859258357816832	0.383657789602097	0.3394067348385774	0.7707453366979474	0.08407737944110699	0.5808077667783976	0.5552909148642302	0.0712939357068529	0.5669975121987698	0.8473574425217761	0.20179623938494265	0.3362630802607709	0.7207136355300985	0.2573842056955555	0.26414255610280296	0.6617737735986876	0.25462857712176334	0.19653938793666934	0.6553255292825292	0.2808945210549286	0.28152789204424516	0.7396626647787964
91	1.5423728813559323	0.43795924609689596	0.5068185611607314	1.0608729586124965	0.48008129386814535	0.5562571659564073	1.516696091280892	0.48565158891103394	0.6285232432903021	1.9385423216886863	0.47200576181934906	0.3785144233062939	1.917276507276011	0.5285381095226246	0.41658203203539673	1.918825268208144	0.4685427287488411	0.6680518007691728	2.0201128028521054	0.21630712148935427	0.5262281462881117	1.0970293583788147	0.26159133224451864	0.5321087343328172	1.547380516882583	0.3304896119647977	0.5999912742358681	1.9544809418115245	0.3312634673326819	0.37936504727659787	1.944206477432711	0.26747545345581963	0.43051437556599914	1.947742870659447	0.34308774500352673	0.6436525297188954	2.0146733642502483	0.24376534953519538	0.5703974364267382	0.43003156213920035	0.24240935127718582	0.49978544914025774	0.17617323186407083	0.2528761280175503	0.45582228310120226	0.2989051002794409	0.43779248986019004	0.5668982258564015	0.5299004692160934	0.5186935659934748	0.6158181606747367	0.7906604226989256	0.45680773435351957	0.40081074914283404	0.7313288456789223	0.3848576852942529	0.311417055551734	0.6871427072891635	0.39938623355797903	0.2706931033366435	0.6907273195899397	0.3906857140949476	0.31479632259740475	0.7631584769104875	0.07760343204930681	0.5652159768097403	0.5575707193110024	0.0706624112791169	0.5651237188164572	0.8473956079298015	0.21371869896047946	0.3229324611201272	0.7157032127247455	0.26184918862929013	0.25158912381511617	0.6572559143013751	0.26017503349901605	0.19098557773573535	0.6544057859133874	0.2878021695770164	0.2930585401883151	0.7415265307254975
